HIERARCHY
ROOT Hips
{
    OFFSET   0.000000   0.000000   0.000000
    CHANNELS 6 Xposition Yposition Zposition Zrotation Xrotation Yrotation
    JOINT Chest
    {
        OFFSET   0.000000   8.007240   0.000000
        CHANNELS 3 Zrotation Xrotation Yrotation
        JOINT Chest2
        {
            OFFSET   0.000000  22.077100   0.000000
            CHANNELS 3 Zrotation Xrotation Yrotation
            JOINT Neck
            {
                OFFSET   0.000000  23.254800   0.000000
                CHANNELS 3 Zrotation Xrotation Yrotation
                JOINT Head
                {
                    OFFSET   0.000000  14.370000   1.956600
                    CHANNELS 3 Zrotation Xrotation Yrotation
                    End Site
                    {
                        OFFSET   0.000000  19.566000   0.000000
                    }
                }
            }
            JOINT LeftCollar
            {
                OFFSET   3.911900  19.017000  -0.467064
                CHANNELS 3 Zrotation Xrotation Yrotation
                JOINT LeftShoulder
                {
                    OFFSET  10.383700   0.000000   0.000000
                    CHANNELS 3 Zrotation Xrotation Yrotation
                    JOINT LeftElbow
                    {
                        OFFSET  26.662100   0.001476   0.000517
                        CHANNELS 3 Zrotation Xrotation Yrotation
                        JOINT LeftWrist
                        {
                            OFFSET  28.869000  -0.000025  -0.000106
                            CHANNELS 3 Zrotation Xrotation Yrotation
                            JOINT LeftFinger0
                            {
                                OFFSET   2.044660  -2.323460   3.252850
                                CHANNELS 3 Zrotation Xrotation Yrotation
                                JOINT LeftFinger01
                                {
                                    OFFSET   3.088130   0.000000   0.000000
                                    CHANNELS 3 Zrotation Xrotation Yrotation
                                    JOINT LeftFinger02
                                    {
                                        OFFSET   2.639460   0.000000   0.000000
                                        CHANNELS 3 Zrotation Xrotation Yrotation
                                        End Site
                                        {
                                            OFFSET   2.582190   0.000000   0.000000
                                        }
                                    }
                                }
                            }
                            JOINT LeftFinger1
                            {
                                OFFSET   8.364480   0.000000   3.252850
                                CHANNELS 3 Zrotation Xrotation Yrotation
                                JOINT LeftFinger11
                                {
                                    OFFSET   4.646930   0.000000   0.000000
                                    CHANNELS 3 Zrotation Xrotation Yrotation
                                    JOINT LeftFinger12
                                    {
                                        OFFSET   2.323460   0.000000   0.000000
                                        CHANNELS 3 Zrotation Xrotation Yrotation
                                        End Site
                                        {
                                            OFFSET   2.273050   0.000000   0.000000
                                        }
                                    }
                                }
                            }
                            JOINT LeftFinger2
                            {
                                OFFSET   8.364490   0.000015   1.078090
                                CHANNELS 3 Zrotation Xrotation Yrotation
                                JOINT LeftFinger21
                                {
                                    OFFSET   5.111620   0.000000   0.000000
                                    CHANNELS 3 Zrotation Xrotation Yrotation
                                    JOINT LeftFinger22
                                    {
                                        OFFSET   2.788160   0.000016   0.000000
                                        CHANNELS 3 Zrotation Xrotation Yrotation
                                        End Site
                                        {
                                            OFFSET   2.727660   0.000000   0.000000
                                        }
                                    }
                                }
                            }
                            JOINT LeftFinger3
                            {
                                OFFSET   7.899780   0.000017  -1.078090
                                CHANNELS 3 Zrotation Xrotation Yrotation
                                JOINT LeftFinger31
                                {
                                    OFFSET   4.646930   0.000000   0.000000
                                    CHANNELS 3 Zrotation Xrotation Yrotation
                                    JOINT LeftFinger32
                                    {
                                        OFFSET   2.323470   0.000000   0.000000
                                        CHANNELS 3 Zrotation Xrotation Yrotation
                                        End Site
                                        {
                                            OFFSET   2.273050   0.000000   0.000000
                                        }
                                    }
                                }
                            }
                            JOINT LeftFinger4
                            {
                                OFFSET   7.435090   0.000000  -3.252850
                                CHANNELS 3 Zrotation Xrotation Yrotation
                                JOINT LeftFinger41
                                {
                                    OFFSET   3.717550   0.000000   0.000000
                                    CHANNELS 3 Zrotation Xrotation Yrotation
                                    JOINT LeftFinger42
                                    {
                                        OFFSET   1.858770   0.000000   0.000000
                                        CHANNELS 3 Zrotation Xrotation Yrotation
                                        End Site
                                        {
                                            OFFSET   1.818440   0.000000   0.000000
                                        }
                                    }
                                }
                            }
                        }
                    }
                }
            }
            JOINT RightCollar
            {
                OFFSET  -3.911900  19.017000  -0.467063
                CHANNELS 3 Zrotation Xrotation Yrotation
                JOINT RightShoulder
                {
                    OFFSET -10.383700   0.000019   0.000000
                    CHANNELS 3 Zrotation Xrotation Yrotation
                    JOINT RightElbow
                    {
                        OFFSET -26.662100   0.001175   0.000102
                        CHANNELS 3 Zrotation Xrotation Yrotation
                        JOINT RightWrist
                        {
                            OFFSET -28.869000   0.000016  -0.000079
                            CHANNELS 3 Zrotation Xrotation Yrotation
                            JOINT RightFinger0
                            {
                                OFFSET  -2.044660  -2.323490   3.252850
                                CHANNELS 3 Zrotation Xrotation Yrotation
                                JOINT RightFinger01
                                {
                                    OFFSET  -3.088140   0.000000   0.000000
                                    CHANNELS 3 Zrotation Xrotation Yrotation
                                    JOINT RightFinger02
                                    {
                                        OFFSET  -2.639460   0.000000   0.000000
                                        CHANNELS 3 Zrotation Xrotation Yrotation
                                        End Site
                                        {
                                            OFFSET  -2.582190   0.000000   0.000000
                                        }
                                    }
                                }
                            }
                            JOINT RightFinger1
                            {
                                OFFSET  -8.364480   0.000000   3.252850
                                CHANNELS 3 Zrotation Xrotation Yrotation
                                JOINT RightFinger11
                                {
                                    OFFSET  -4.646930   0.000000   0.000000
                                    CHANNELS 3 Zrotation Xrotation Yrotation
                                    JOINT RightFinger12
                                    {
                                        OFFSET  -2.323470   0.000000   0.000000
                                        CHANNELS 3 Zrotation Xrotation Yrotation
                                        End Site
                                        {
                                            OFFSET  -2.273050   0.000000   0.000000
                                        }
                                    }
                                }
                            }
                            JOINT RightFinger2
                            {
                                OFFSET  -8.364480   0.000000   1.078090
                                CHANNELS 3 Zrotation Xrotation Yrotation
                                JOINT RightFinger21
                                {
                                    OFFSET  -5.111620   0.000000   0.000000
                                    CHANNELS 3 Zrotation Xrotation Yrotation
                                    JOINT RightFinger22
                                    {
                                        OFFSET  -2.788160   0.000000   0.000000
                                        CHANNELS 3 Zrotation Xrotation Yrotation
                                        End Site
                                        {
                                            OFFSET  -2.727660   0.000000   0.000000
                                        }
                                    }
                                }
                            }
                            JOINT RightFinger3
                            {
                                OFFSET  -7.899780   0.000000  -1.078090
                                CHANNELS 3 Zrotation Xrotation Yrotation
                                JOINT RightFinger31
                                {
                                    OFFSET  -4.646930   0.000000   0.000000
                                    CHANNELS 3 Zrotation Xrotation Yrotation
                                    JOINT RightFinger32
                                    {
                                        OFFSET  -2.323470   0.000000   0.000000
                                        CHANNELS 3 Zrotation Xrotation Yrotation
                                        End Site
                                        {
                                            OFFSET  -2.273050   0.000000   0.000000
                                        }
                                    }
                                }
                            }
                            JOINT RightFinger4
                            {
                                OFFSET  -7.435090   0.000000  -3.252850
                                CHANNELS 3 Zrotation Xrotation Yrotation
                                JOINT RightFinger41
                                {
                                    OFFSET  -3.717550   0.000000   0.000000
                                    CHANNELS 3 Zrotation Xrotation Yrotation
                                    JOINT RightFinger42
                                    {
                                        OFFSET  -1.858770   0.000000   0.000000
                                        CHANNELS 3 Zrotation Xrotation Yrotation
                                        End Site
                                        {
                                            OFFSET  -1.818440   0.000000   0.000000
                                        }
                                    }
                                }
                            }
                        }
                    }
                }
            }
        }
    }
    JOINT LeftHip
    {
        OFFSET   9.783040   0.000000   0.000000
        CHANNELS 3 Zrotation Xrotation Yrotation
        JOINT LeftKnee
        {
            OFFSET   0.000032 -41.789100  -0.002222
            CHANNELS 3 Zrotation Xrotation Yrotation
            JOINT LeftAnkle
            {
                OFFSET   0.000087 -41.133200  -0.000135
                CHANNELS 3 Zrotation Xrotation Yrotation
                JOINT LeftToe
                {
                    OFFSET   0.000000  -6.358960  14.674500
                    CHANNELS 3 Zrotation Xrotation Yrotation
                    End Site
                    {
                        OFFSET   0.000000   0.000000   3.913200
                    }
                }
            }
        }
    }
    JOINT RightHip
    {
        OFFSET  -9.783040   0.000000   0.000000
        CHANNELS 3 Zrotation Xrotation Yrotation
        JOINT RightKnee
        {
            OFFSET   0.000047 -41.789100  -0.000896
            CHANNELS 3 Zrotation Xrotation Yrotation
            JOINT RightAnkle
            {
                OFFSET  -0.000117 -41.133300  -0.000248
                CHANNELS 3 Zrotation Xrotation Yrotation
                JOINT RightToe
                {
                    OFFSET   0.000000  -6.358970  14.674500
                    CHANNELS 3 Zrotation Xrotation Yrotation
                    End Site
                    {
                        OFFSET   0.000000   0.000000   3.913200
                    }
                }
            }
        }
    }
}
MOTION
Frames: 4
Frame Time:   0.016667
 -0.375241  89.404500   1.622210  -6.432350 -13.971800  -9.374670   3.476450   9.865410  -2.199090   7.509670  19.567100  -5.126690  13.468400   5.469170  -1.307640  22.565300   9.269590  14.483300   1.418180   4.058110   1.343150 -68.443800  33.567800 -24.360200  -5.383910 -14.462400 -12.313900   7.939580  -6.317500  15.035500  38.661200  25.892700 -57.873600 -26.613300   0.224337   0.128000  -8.310040   0.108218   0.070445 -35.917300   5.711260  -7.822720 -29.706700  -0.018964  -0.062210 -20.794700  -0.005582  -0.045374 -28.804700   1.264100  -2.297500 -43.245100  -0.016090  -0.080141 -28.801200   0.017109  -0.051684 -28.418600  -4.844070   8.868820 -42.481200  -0.004400  -0.092358 -28.292500   0.029166  -0.054348 -35.757300  -5.940170   8.178480 -54.273400   0.046046  -0.114912 -36.146100   0.074537  -0.035175  -5.381360  -3.827510   6.137730  46.923600  28.731300  64.178800  -2.700060 -26.343100 109.148000 -36.510000 -57.062700 -12.823300 -42.592300  36.292100  76.677500  24.595600   0.002737  -0.001188   7.297820   0.004734   0.004795  14.434800   1.261710   4.889680  11.854400  -0.000493   0.000754   8.298070   0.000828   0.003775  16.878500   1.469600   4.831410  16.940500   0.000262  -0.001052  11.282400   0.000452  -0.002147  18.430100   1.600130   4.789830  18.497100  -0.000791  -0.003937  12.319100  -0.000743  -0.003156  21.992900   1.895190   4.681160  33.105700   0.001485  -0.000558  22.048400  -0.002779  -0.008638   5.349050  19.777000   2.529340   1.714630   0.001618   3.489730  -3.171580  -4.356290  14.687000   0.000000   0.000000   0.000000   3.004880  12.343500  -6.020020   0.512335   6.457780   7.086430  -3.732130  -3.695050   5.104910  -0.000000   0.000000  -0.000000
 -0.375148  89.407900   1.633700  -6.423780 -13.965600  -9.342210   3.466060   9.873770  -2.197260   7.488710  19.583900  -5.121810  13.381200   5.481770  -1.302620  22.421900   9.313310  14.514600   1.420230   4.062600   1.363430 -68.430600  33.611900 -24.370700  -5.373160 -14.495300 -12.301800   7.920510  -6.325820  15.035200  38.619000  25.827300 -57.893900 -26.624000   0.089459   0.052649  -8.313750   0.043381   0.026021 -35.939500   5.727190  -7.837800 -29.726700  -0.011568  -0.033806 -20.808700  -0.005581  -0.024908 -28.843500   1.270080  -2.304890 -43.303500  -0.009745  -0.026435 -28.840100   0.003178  -0.018412 -28.421400  -4.835730   8.853210 -42.531700  -0.004444  -0.033582 -28.326100   0.008867  -0.020828 -35.785000  -5.933610   8.161370 -54.313200   0.011999  -0.043450 -36.172500   0.025586  -0.015446  -5.383160  -3.783450   6.126320  46.885100  28.730800  64.242500  -2.695010 -26.322400 109.132000 -36.689700 -56.999100 -13.005000 -42.486400  36.245600  76.596000  24.691600   0.002554  -0.001104   7.345800   0.004732   0.004777  14.403300   1.257480   4.887030  11.828800  -0.000510   0.000707   8.280170   0.000785   0.003760  16.882200   1.469730   4.827360  16.944100   0.000260  -0.001052  11.284800   0.000433  -0.002133  18.390800   1.593010   4.788400  18.457300  -0.000803  -0.003866  12.292600  -0.000754  -0.003179  21.905500   1.873310   4.660790  32.978300   0.001338  -0.000657  21.963500  -0.002824  -0.008610   5.350580  19.726700   2.525710   1.712920   0.090648   3.469170  -3.173280  -4.405850  14.677100  -0.000000   0.000000  -0.000000   3.001760  12.342700  -6.034620   0.522912   6.458310   7.086880  -3.740070  -3.700760   5.088710   0.000000   0.000000   0.000000
 -0.374968  89.411400   1.643750  -6.415390 -13.955700  -9.312870   3.454560   9.878920  -2.194210   7.465060  19.595400  -5.114090  13.302100   5.483580  -1.294320  22.292100   9.338390  14.606900   1.422240   4.068000   1.383850 -68.409000  33.666400 -24.384000  -5.368110 -14.535600 -12.290800   7.907760  -6.334250  15.031000  38.573900  25.766000 -57.907800 -26.631800  -0.045420  -0.022700  -8.315940  -0.021457  -0.018378 -35.954400   5.747710  -7.861290 -29.740700  -0.000637   0.005323 -20.818500  -0.005579   0.003334 -28.871900   1.279080  -2.318190 -43.346800  -0.003645   0.027271 -28.869000  -0.010752   0.014860 -28.424900  -4.824900   8.832990 -42.580500  -0.004749   0.025194 -28.358600  -0.011432   0.012692 -35.813300  -5.923990   8.140010 -54.353000  -0.022047   0.028011 -36.199000  -0.023366   0.004284  -5.387970  -3.738690   6.112520  46.822900  28.718500  64.338900  -2.675010 -26.300300 109.115000 -36.898000 -56.952000 -13.214600 -42.416700  36.217800  76.524600  24.793800   0.002372  -0.001019   7.396890   0.004732   0.004759  14.391400   1.256870   4.886650  11.818700  -0.000526   0.000662   8.273070   0.000743   0.003745  16.907100   1.470610   4.826780  16.969000   0.000258  -0.001053  11.301400   0.000419  -0.002120  18.351000   1.591990   4.788190  18.417500  -0.000814  -0.003794  12.266100  -0.000763  -0.003203  21.837400   1.870180   4.657890  32.870200   0.001189  -0.000755  21.891500  -0.002867  -0.008581   5.352720  19.671600   2.522150   1.711270   0.179682   3.447400  -3.174710  -4.455330  14.671000   0.000000   0.000000   0.000000   2.998050  12.338900  -6.055050   0.534603   6.458890   7.089950  -3.748540  -3.705120   5.074670   0.000000   0.000000   0.000000
 -0.374732  89.413900   1.652100  -6.406800 -13.939100  -9.286860   3.440860   9.879030  -2.188390   7.436080  19.597400  -5.099810  13.239600   5.480920  -1.286420  22.186100   9.348550  14.777300   1.420850   4.076740   1.400270 -68.390300  33.714900 -24.388800  -5.367250 -14.572800 -12.287100   7.901230  -6.320560  15.003900  38.599700  25.782100 -57.933000 -26.606100   0.069446   0.076691  -8.303070   0.031741   0.038323 -35.952400   5.763750  -7.881760 -29.740600   0.005341   0.019854 -20.818400  -0.005580   0.013978 -28.863000   1.292920  -2.343890 -43.334500  -0.017349  -0.051760 -28.860800   0.004469  -0.036435 -28.427200  -4.812830   8.810600 -42.605100  -0.008979  -0.044702 -28.375000   0.008995  -0.028852 -35.829200  -5.911060   8.117930 -54.374700   0.012139  -0.061597 -36.213500   0.033037  -0.025378  -5.397220  -3.699410   6.093980  46.739500  28.707900  64.455900  -2.652980 -26.286000 109.075000 -37.161700 -56.932300 -13.481400 -42.398300  36.247600  76.494400  24.911000   0.002203  -0.000940   7.455480   0.004733   0.004744  14.458100   1.267560   4.908390  11.873900  -0.000538   0.000625   8.311710   0.000689   0.003728  16.969900   1.481360   4.848420  17.032600   0.000244  -0.001057  11.343700   0.000418  -0.002115  18.366500   1.599250   4.810780  18.433800  -0.000818  -0.003737  12.277000  -0.000770  -0.003227  21.831400   1.934640   4.823370  32.874900   0.001041  -0.000838  21.894600  -0.002906  -0.008557   5.353670  19.668500   2.516730   1.708490   0.149050   3.432100  -3.173060  -4.443640  14.668300   0.000000   0.000000   0.000000   2.992290  12.325400  -6.087470   0.542874   6.460430   7.111460  -3.754960  -3.709740   5.059220  -0.000000   0.000000  -0.000000
